<svg xmlns="http://www.w3.org/2000/svg" width="11.687" height="14.818" viewBox="0 0 11.687 14.818">
  <path id="Path_13957" data-name="Path 13957" d="M163.211,146.939a.471.471,0,0,0-.211.391v7.062a.469.469,0,0,0,.217.4l5.344,3.409a.469.469,0,0,0,.5,0l5.406-3.409a.469.469,0,0,0,.219-.4v-1.281a.469.469,0,0,0-.937,0v1.023l-4.469,2.818V151l4.469-2.818v2.744a.469.469,0,0,0,.938,0V147.33a.473.473,0,0,0-.219-.4l-5.406-3.409a.469.469,0,0,0-.5,0l-5.344,3.409Zm5.6-2.463,4.526,2.854-4.526,2.854-1.453-.927a.469.469,0,1,0-.5.79l1.487.948v5.95l-4.406-2.811v-5.95l1.072.684a.469.469,0,0,0,.5-.79l-1.173-.749Z" transform="translate(-163 -143.452)" fill="#299e97"/>
</svg>
